<svg width="2895" height="811" viewBox="0 0 2895 811" fill="none" xmlns="http://www.w3.org/2000/svg">
<rect x="0.5" y="0.5" width="2894" height="810" fill="#3333CC" stroke="black"/>
<path d="M642.136 244V467L417.136 293.5L354.636 245.5V594.5H417.136V373L642.136 546.5L704.636 594.5V244.5L642.136 244ZM1060.04 531.5L913.538 244L767.038 531.5L735.038 594H805.038L837.038 531.5L913.538 381.5L990.038 531.5L1022.04 594H1092.04L1060.04 531.5ZM1023.09 244.5V307H1166.59V594.5H1229.09V307H1372.59V244.5H1023.09ZM1710.5 244V419C1710.5 481 1660 531.5 1598 531.5C1536 531.5 1485.5 481 1485.5 419V244H1423V419C1423 515.5 1501.5 594 1598 594C1694.5 594 1773 515.5 1773 419V244H1710.5ZM2110.4 244V467L1885.4 293.5L1822.9 245.5V594.5H1885.4V373L2110.4 546.5L2172.9 594.5V244.5L2110.4 244ZM2528.3 531.5L2381.8 244L2235.3 531.5L2203.3 594H2273.3L2305.3 531.5L2381.8 381.5L2458.3 531.5L2490.3 594H2560.3L2528.3 531.5Z" fill="white"/>
<path d="M642.136 244L642.144 243L641.136 242.992V244H642.136ZM642.136 467L641.525 467.792L643.136 469.034V467H642.136ZM417.136 293.5L417.747 292.708L417.745 292.707L417.136 293.5ZM354.636 245.5L355.245 244.707L353.636 243.471V245.5H354.636ZM354.636 594.5H353.636V595.5H354.636V594.5ZM417.136 594.5V595.5H418.136V594.5H417.136ZM417.136 373L417.747 372.208L416.136 370.966V373H417.136ZM642.136 546.5L641.525 547.292L641.527 547.293L642.136 546.5ZM704.636 594.5L704.027 595.293L705.636 596.529V594.5H704.636ZM704.636 244.5H705.636V243.508L704.644 243.5L704.636 244.5ZM641.136 244V467H643.136V244H641.136ZM642.747 466.208L417.747 292.708L416.525 294.292L641.525 467.792L642.747 466.208ZM417.745 292.707L355.245 244.707L354.027 246.293L416.527 294.293L417.745 292.707ZM353.636 245.5V594.5H355.636V245.5H353.636ZM354.636 595.5H417.136V593.5H354.636V595.5ZM418.136 594.5V373H416.136V594.5H418.136ZM416.525 373.792L641.525 547.292L642.747 545.708L417.747 372.208L416.525 373.792ZM641.527 547.293L704.027 595.293L705.245 593.707L642.745 545.707L641.527 547.293ZM705.636 594.5V244.5H703.636V594.5H705.636ZM704.644 243.5L642.144 243L642.128 245L704.628 245.5L704.644 243.5ZM1060.04 531.5L1059.15 531.954L1059.15 531.956L1060.04 531.5ZM913.538 244L914.429 243.546L913.538 241.797L912.647 243.546L913.538 244ZM767.038 531.5L767.928 531.956L767.929 531.954L767.038 531.5ZM735.038 594L734.148 593.544L733.403 595H735.038V594ZM805.038 594V595H805.65L805.928 594.456L805.038 594ZM837.038 531.5L837.928 531.956L837.929 531.954L837.038 531.5ZM913.538 381.5L914.429 381.046L913.538 379.299L912.647 381.046L913.538 381.5ZM990.038 531.5L989.147 531.954L989.148 531.956L990.038 531.5ZM1022.04 594L1021.15 594.456L1021.43 595H1022.04V594ZM1092.04 594V595H1093.67L1092.93 593.544L1092.04 594ZM1060.93 531.046L914.429 243.546L912.647 244.454L1059.15 531.954L1060.93 531.046ZM912.647 243.546L766.147 531.046L767.929 531.954L914.429 244.454L912.647 243.546ZM766.148 531.044L734.148 593.544L735.928 594.456L767.928 531.956L766.148 531.044ZM735.038 595H805.038V593H735.038V595ZM805.928 594.456L837.928 531.956L836.148 531.044L804.148 593.544L805.928 594.456ZM837.929 531.954L914.429 381.954L912.647 381.046L836.147 531.046L837.929 531.954ZM912.647 381.954L989.147 531.954L990.929 531.046L914.429 381.046L912.647 381.954ZM989.148 531.956L1021.15 594.456L1022.93 593.544L990.928 531.044L989.148 531.956ZM1022.04 595H1092.04V593H1022.04V595ZM1092.93 593.544L1060.93 531.044L1059.15 531.956L1091.15 594.456L1092.93 593.544ZM1023.09 244.5V243.5H1022.09V244.5H1023.09ZM1023.09 307H1022.09V308H1023.09V307ZM1166.59 307H1167.59V306H1166.59V307ZM1166.59 594.5H1165.59V595.5H1166.59V594.5ZM1229.09 594.5V595.5H1230.09V594.5H1229.09ZM1229.09 307V306H1228.09V307H1229.09ZM1372.59 307V308H1373.59V307H1372.59ZM1372.59 244.5H1373.59V243.5H1372.59V244.5ZM1022.09 244.5V307H1024.09V244.5H1022.09ZM1023.09 308H1166.59V306H1023.09V308ZM1165.59 307V594.5H1167.59V307H1165.59ZM1166.59 595.5H1229.09V593.5H1166.59V595.5ZM1230.09 594.5V307H1228.09V594.5H1230.09ZM1229.09 308H1372.59V306H1229.09V308ZM1373.59 307V244.5H1371.59V307H1373.59ZM1372.59 243.5H1023.09V245.5H1372.59V243.5ZM1710.5 244V243H1709.5V244H1710.5ZM1485.5 244H1486.5V243H1485.5V244ZM1423 244V243H1422V244H1423ZM1773 244H1774V243H1773V244ZM1709.5 244V419H1711.5V244H1709.5ZM1709.5 419C1709.5 480.448 1659.44 530.5 1598 530.5V532.5C1660.55 532.5 1711.5 481.552 1711.5 419H1709.5ZM1598 530.5C1536.55 530.5 1486.5 480.448 1486.5 419H1484.5C1484.5 481.552 1535.44 532.5 1598 532.5V530.5ZM1486.5 419V244H1484.5V419H1486.5ZM1485.5 243H1423V245H1485.5V243ZM1422 244V419H1424V244H1422ZM1422 419C1422 516.052 1500.94 595 1598 595V593C1502.05 593 1424 514.948 1424 419H1422ZM1598 595C1695.05 595 1774 516.052 1774 419H1772C1772 514.948 1693.94 593 1598 593V595ZM1774 419V244H1772V419H1774ZM1773 243H1710.5V245H1773V243ZM2110.4 244L2110.41 243L2109.4 242.992V244H2110.4ZM2110.4 467L2109.79 467.792L2111.4 469.034V467H2110.4ZM1885.4 293.5L1886.01 292.708L1886.01 292.707L1885.4 293.5ZM1822.9 245.5L1823.51 244.707L1821.9 243.471V245.5H1822.9ZM1822.9 594.5H1821.9V595.5H1822.9V594.5ZM1885.4 594.5V595.5H1886.4V594.5H1885.4ZM1885.4 373L1886.01 372.208L1884.4 370.966V373H1885.4ZM2110.4 546.5L2109.79 547.292L2109.79 547.293L2110.4 546.5ZM2172.9 594.5L2172.29 595.293L2173.9 596.529V594.5H2172.9ZM2172.9 244.5H2173.9V243.508L2172.91 243.5L2172.9 244.5ZM2109.4 244V467H2111.4V244H2109.4ZM2111.01 466.208L1886.01 292.708L1884.79 294.292L2109.79 467.792L2111.01 466.208ZM1886.01 292.707L1823.51 244.707L1822.29 246.293L1884.79 294.293L1886.01 292.707ZM1821.9 245.5V594.5H1823.9V245.5H1821.9ZM1822.9 595.5H1885.4V593.5H1822.9V595.5ZM1886.4 594.5V373H1884.4V594.5H1886.4ZM1884.79 373.792L2109.79 547.292L2111.01 545.708L1886.01 372.208L1884.79 373.792ZM2109.79 547.293L2172.29 595.293L2173.51 593.707L2111.01 545.707L2109.79 547.293ZM2173.9 594.5V244.5H2171.9V594.5H2173.9ZM2172.91 243.5L2110.41 243L2110.39 245L2172.89 245.5L2172.91 243.5ZM2528.3 531.5L2527.41 531.954L2527.41 531.956L2528.3 531.5ZM2381.8 244L2382.69 243.546L2381.8 241.797L2380.91 243.546L2381.8 244ZM2235.3 531.5L2236.19 531.956L2236.19 531.954L2235.3 531.5ZM2203.3 594L2202.41 593.544L2201.66 595H2203.3V594ZM2273.3 594V595H2273.91L2274.19 594.456L2273.3 594ZM2305.3 531.5L2306.19 531.956L2306.19 531.954L2305.3 531.5ZM2381.8 381.5L2382.69 381.046L2381.8 379.299L2380.91 381.046L2381.8 381.5ZM2458.3 531.5L2457.41 531.954L2457.41 531.956L2458.3 531.5ZM2490.3 594L2489.41 594.456L2489.69 595H2490.3V594ZM2560.3 594V595H2561.94L2561.19 593.544L2560.3 594ZM2529.19 531.046L2382.69 243.546L2380.91 244.454L2527.41 531.954L2529.19 531.046ZM2380.91 243.546L2234.41 531.046L2236.19 531.954L2382.69 244.454L2380.91 243.546ZM2234.41 531.044L2202.41 593.544L2204.19 594.456L2236.19 531.956L2234.41 531.044ZM2203.3 595H2273.3V593H2203.3V595ZM2274.19 594.456L2306.19 531.956L2304.41 531.044L2272.41 593.544L2274.19 594.456ZM2306.19 531.954L2382.69 381.954L2380.91 381.046L2304.41 531.046L2306.19 531.954ZM2380.91 381.954L2457.41 531.954L2459.19 531.046L2382.69 381.046L2380.91 381.954ZM2457.41 531.956L2489.41 594.456L2491.19 593.544L2459.19 531.044L2457.41 531.956ZM2490.3 595H2560.3V593H2490.3V595ZM2561.19 593.544L2529.19 531.044L2527.41 531.956L2559.41 594.456L2561.19 593.544Z" fill="black"/>
</svg>
